<svg width="42" height="42" viewBox="0 0 42 42" fill="none" xmlns="http://www.w3.org/2000/svg">
<path d="M31.5 36.3125H10.5C9.22365 36.3125 7.99957 35.8055 7.09705 34.903C6.19453 34.0004 5.6875 32.7764 5.6875 31.5V10.5C5.6875 9.22365 6.19453 7.99957 7.09705 7.09705C7.99957 6.19453 9.22365 5.6875 10.5 5.6875H26.005C26.3531 5.6875 26.6869 5.82578 26.9331 6.07192C27.1792 6.31806 27.3175 6.6519 27.3175 7C27.3175 7.3481 27.1792 7.68194 26.9331 7.92808C26.6869 8.17422 26.3531 8.3125 26.005 8.3125H10.5C9.91984 8.3125 9.36344 8.54297 8.9532 8.9532C8.54297 9.36344 8.3125 9.91984 8.3125 10.5V31.5C8.3125 32.0802 8.54297 32.6366 8.9532 33.0468C9.36344 33.457 9.91984 33.6875 10.5 33.6875H31.5C32.0802 33.6875 32.6366 33.457 33.0468 33.0468C33.457 32.6366 33.6875 32.0802 33.6875 31.5V18.0075C33.6875 17.6594 33.8258 17.3256 34.0719 17.0794C34.3181 16.8333 34.6519 16.695 35 16.695C35.3481 16.695 35.6819 16.8333 35.9281 17.0794C36.1742 17.3256 36.3125 17.6594 36.3125 18.0075V31.5C36.3125 32.7764 35.8055 34.0004 34.903 34.903C34.0004 35.8055 32.7764 36.3125 31.5 36.3125Z" fill="#0C4D83"/>
<path d="M18.375 26.6875C18.0373 26.6617 17.7232 26.5046 17.5 26.25L12.25 21C12.133 20.7551 12.0948 20.4799 12.1407 20.2124C12.1866 19.9449 12.3143 19.6982 12.5062 19.5063C12.6982 19.3144 12.9449 19.1867 13.2124 19.1408C13.4799 19.0949 13.755 19.133 14 19.25L18.3225 23.5725L33.25 8.75C33.4949 8.63303 33.77 8.59486 34.0376 8.64076C34.3051 8.68666 34.5518 8.81436 34.7437 9.00628C34.9356 9.1982 35.0633 9.4449 35.1092 9.71241C35.1551 9.97992 35.1169 10.2551 35 10.5L19.25 26.25C19.0267 26.5046 18.7126 26.6617 18.375 26.6875Z" fill="#0C4D83"/>
</svg>
