<svg width="32" height="32" viewBox="0 0 32 32" fill="none" xmlns="http://www.w3.org/2000/svg">
<path d="M7.48798 26.6666C6.87376 26.6666 6.36131 26.4613 5.95065 26.0506C5.53998 25.64 5.3342 25.1271 5.33331 24.512V7.48798C5.33331 6.87376 5.53909 6.36131 5.95065 5.95065C6.3622 5.53998 6.87465 5.3342 7.48798 5.33331H20.7693L26.6666 11.2306V24.5133C26.6666 25.1266 26.4613 25.6391 26.0506 26.0506C25.64 26.4622 25.1271 26.6675 24.512 26.6666H7.48798ZM9.99998 21.3333H22V20H9.99998V21.3333ZM9.99998 16.6666H22V15.3333H9.99998V16.6666ZM20 12H25.3333L20 6.66665V12ZM9.99998 12H16V10.6666H9.99998V12Z" fill="#B18334"/>
</svg>
