<svg width="37" height="37" viewBox="0 0 37 37" fill="none" xmlns="http://www.w3.org/2000/svg">
<path fill-rule="evenodd" clip-rule="evenodd" d="M32.375 9.25V6.95138C32.375 5.66563 31.3344 4.625 30.0486 4.625H25.4375V6.9375H23.125V4.625H13.875V6.9375H11.5625V4.625H6.95138C5.66563 4.625 4.625 5.66563 4.625 6.95138V30.0486C4.625 31.3344 5.66563 32.375 6.95138 32.375H30.0486C31.3344 32.375 32.375 31.3344 32.375 30.0486V11.5625H4.625V9.25H32.375ZM25.4375 2.3125H30.0486C32.6109 2.3125 34.6875 4.38681 34.6875 6.95138V30.0486C34.6878 30.6579 34.568 31.2613 34.335 31.8242C34.102 32.3872 33.7603 32.8987 33.3295 33.3295C32.8987 33.7603 32.3872 34.102 31.8242 34.335C31.2613 34.568 30.6579 34.6878 30.0486 34.6875H6.95138C6.3421 34.6878 5.73875 34.568 5.1758 34.335C4.61284 34.102 4.10134 33.7603 3.67052 33.3295C3.2397 32.8987 2.89801 32.3872 2.66499 31.8242C2.43198 31.2613 2.3122 30.6579 2.3125 30.0486V6.95138C2.3125 4.38912 4.38681 2.3125 6.95138 2.3125H11.5625V0H13.875V2.3125H23.125V0H25.4375V2.3125ZM9.25 16.1875H13.875V18.5H9.25V16.1875ZM16.1875 16.1875H20.8125V18.5H16.1875V16.1875ZM23.125 16.1875H27.75V18.5H23.125V16.1875ZM9.25 20.8125H13.875V23.125H9.25V20.8125ZM16.1875 20.8125H20.8125V23.125H16.1875V20.8125ZM23.125 20.8125H27.75V23.125H23.125V20.8125ZM9.25 25.4375H13.875V27.75H9.25V25.4375ZM16.1875 25.4375H20.8125V27.75H16.1875V25.4375ZM23.125 25.4375H27.75V27.75H23.125V25.4375Z" fill="#B18334"/>
</svg>
