<svg width="38" height="38" viewBox="0 0 38 38" fill="none" xmlns="http://www.w3.org/2000/svg">
<path d="M22.1666 20.5833C20.8471 20.5833 19.7256 20.1215 18.802 19.1979C17.8784 18.2743 17.4166 17.1528 17.4166 15.8333C17.4166 14.5139 17.8784 13.3923 18.802 12.4687C19.7256 11.5451 20.8471 11.0833 22.1666 11.0833C23.486 11.0833 24.6076 11.5451 25.5312 12.4687C26.4548 13.3923 26.9166 14.5139 26.9166 15.8333C26.9166 17.1528 26.4548 18.2743 25.5312 19.1979C24.6076 20.1215 23.486 20.5833 22.1666 20.5833ZM7.91659 25.3333V6.33331H36.4166V25.3333H7.91659ZM14.2499 22.1666H30.0833C30.0833 21.2958 30.3936 20.5506 31.0143 19.931C31.6349 19.3114 32.3801 19.001 33.2499 19V12.6666C32.3791 12.6666 31.6339 12.3568 31.0143 11.7372C30.3946 11.1176 30.0843 10.3719 30.0833 9.49998H14.2499C14.2499 10.3708 13.9401 11.1166 13.3205 11.7372C12.7009 12.3579 11.9551 12.6677 11.0833 12.6666V19C11.9541 19 12.6998 19.3103 13.3205 19.931C13.9412 20.5516 14.251 21.2969 14.2499 22.1666ZM1.58325 31.6666V11.0833H4.74992V28.5H31.6666V31.6666H1.58325Z" fill="#B18334"/>
</svg>
