<svg width="43" height="43" viewBox="0 0 43 43" fill="none" xmlns="http://www.w3.org/2000/svg">
<path d="M35.8333 21.0521C35.5423 21.0534 35.259 20.959 35.027 20.7833L21.5 10.6425L7.97288 20.7833C7.68777 20.9972 7.3294 21.089 6.9766 21.0386C6.62379 20.9882 6.30546 20.7997 6.09163 20.5146C5.8778 20.2295 5.78599 19.8711 5.83639 19.5183C5.88679 19.1655 6.07527 18.8472 6.36038 18.6333L20.6937 7.88334C20.9263 7.70889 21.2092 7.61459 21.5 7.61459C21.7907 7.61459 22.0736 7.70889 22.3062 7.88334L36.6395 18.6333C36.8997 18.8447 37.0715 19.1456 37.1213 19.4771C37.171 19.8085 37.095 20.1466 36.9083 20.425C36.7941 20.6095 36.6364 20.7632 36.4489 20.8725C36.2615 20.9818 36.0501 21.0435 35.8333 21.0521Z" fill="black"/>
<path d="M32.25 35.3854H10.75C10.3951 35.3808 10.056 35.2377 9.80496 34.9867C9.55395 34.7357 9.41089 34.3966 9.40625 34.0417V17.0208C9.40625 16.6645 9.54782 16.3227 9.79983 16.0707C10.0518 15.8187 10.3936 15.6771 10.75 15.6771C11.1064 15.6771 11.4482 15.8187 11.7002 16.0707C11.9522 16.3227 12.0938 16.6645 12.0938 17.0208V32.6979H30.9062V17.0208C30.9062 16.6645 31.0478 16.3227 31.2998 16.0707C31.5518 15.8187 31.8936 15.6771 32.25 15.6771C32.6064 15.6771 32.9482 15.8187 33.2002 16.0707C33.4522 16.3227 33.5938 16.6645 33.5938 17.0208V34.0417C33.5891 34.3966 33.446 34.7357 33.195 34.9867C32.944 35.2377 32.6049 35.3808 32.25 35.3854Z" fill="black"/>
<path d="M25.0833 35.3854C24.7284 35.3808 24.3893 35.2377 24.1382 34.9867C23.8872 34.7357 23.7442 34.3966 23.7395 34.0417V22.8438H19.2604V34.0417C19.2604 34.3981 19.1188 34.7398 18.8668 34.9918C18.6148 35.2438 18.273 35.3854 17.9166 35.3854C17.5602 35.3854 17.2185 35.2438 16.9665 34.9918C16.7144 34.7398 16.5729 34.3981 16.5729 34.0417V21.5C16.5775 21.1451 16.7206 20.806 16.9716 20.555C17.2226 20.304 17.5617 20.1609 17.9166 20.1562H25.0833C25.4382 20.1609 25.7773 20.304 26.0283 20.555C26.2793 20.806 26.4224 21.1451 26.427 21.5V34.0417C26.4224 34.3966 26.2793 34.7357 26.0283 34.9867C25.7773 35.2377 25.4382 35.3808 25.0833 35.3854Z" fill="black"/>
</svg>
