<svg width="32" height="32" viewBox="0 0 32 32" fill="none" xmlns="http://www.w3.org/2000/svg">
<path d="M8.82132 28C8.22843 28 7.72132 27.7889 7.29999 27.3667C6.87866 26.9444 6.66755 26.4382 6.66666 25.848V14.1547C6.66666 13.5627 6.87777 13.056 7.29999 12.6347C7.72221 12.2133 8.22888 12.0018 8.81999 12H10.6667V9.33333C10.6667 7.848 11.1844 6.588 12.22 5.55333C13.2547 4.51778 14.5147 4 16 4C17.4853 4 18.7458 4.51778 19.7813 5.55333C20.8169 6.58889 21.3342 7.84889 21.3333 9.33333V12H23.18C23.772 12 24.2787 12.2111 24.7 12.6333C25.1213 13.0556 25.3324 13.5622 25.3333 14.1533V25.8467C25.3333 26.4387 25.1222 26.9453 24.7 27.3667C24.2778 27.788 23.7711 27.9991 23.18 28H8.82132ZM17.4213 21.4213C17.8071 21.0364 18 20.5627 18 20C18 19.4373 17.8071 18.9636 17.4213 18.5787C17.0355 18.1938 16.5618 18.0009 16 18C15.4382 17.9991 14.9644 18.192 14.5787 18.5787C14.1929 18.9636 14 19.4373 14 20C14 20.5627 14.1929 21.0364 14.5787 21.4213C14.9635 21.8071 15.4373 22 16 22C16.5627 22 17.0364 21.8071 17.4213 21.4213ZM12 12H20V9.33333C20 8.22222 19.6111 7.27778 18.8333 6.5C18.0555 5.72222 17.1111 5.33333 16 5.33333C14.8889 5.33333 13.9444 5.72222 13.1667 6.5C12.3889 7.27778 12 8.22222 12 9.33333V12Z" fill="#B3B3B3"/>
</svg>
