<svg width="29" height="29" viewBox="0 0 29 29" fill="none" xmlns="http://www.w3.org/2000/svg">
<path d="M22.8828 5.56891L23.4311 6.11719C23.8571 6.54312 23.8571 7.23187 23.4311 7.65328L22.1125 8.97641L20.0236 6.8875L21.3422 5.56891C21.7682 5.14297 22.4569 5.14297 22.8783 5.56891H22.8828ZM12.4066 14.5091L18.4875 8.42359L20.5764 10.5125L14.491 16.5934C14.3596 16.7248 14.1964 16.82 14.0197 16.8698L11.3689 17.6266L12.1257 14.9758C12.1755 14.7991 12.2706 14.6359 12.4021 14.5045L12.4066 14.5091ZM19.8061 4.03281L10.866 12.9684C10.4717 13.3627 10.1863 13.8475 10.0367 14.3777L8.74081 18.9089C8.63206 19.2895 8.73627 19.6973 9.01721 19.9783C9.29815 20.2592 9.70596 20.3634 10.0866 20.2547L14.6178 18.9587C15.1525 18.8047 15.6374 18.5192 16.0271 18.1295L24.9672 9.1939C26.2405 7.92062 26.2405 5.85437 24.9672 4.58109L24.4189 4.03281C23.1457 2.75953 21.0794 2.75953 19.8061 4.03281ZM6.88752 5.8C4.68534 5.8 2.90002 7.58531 2.90002 9.7875V22.1125C2.90002 24.3147 4.68534 26.1 6.88752 26.1H19.2125C21.4147 26.1 23.2 24.3147 23.2 22.1125V17.0375C23.2 16.4348 22.7152 15.95 22.1125 15.95C21.5099 15.95 21.025 16.4348 21.025 17.0375V22.1125C21.025 23.1139 20.2139 23.925 19.2125 23.925H6.88752C5.88612 23.925 5.07502 23.1139 5.07502 22.1125V9.7875C5.07502 8.78609 5.88612 7.975 6.88752 7.975H11.9625C12.5652 7.975 13.05 7.49016 13.05 6.8875C13.05 6.28484 12.5652 5.8 11.9625 5.8H6.88752Z" fill="#FFFBFB"/>
</svg>
