<svg width="32" height="32" viewBox="0 0 32 32" fill="none" xmlns="http://www.w3.org/2000/svg">
<path d="M29.0014 5.82824C29.3764 5.45318 29.587 4.94457 29.587 4.41424C29.587 3.88391 29.3764 3.3753 29.0014 3.00024L27.5868 1.58557C27.2117 1.21063 26.7031 1 26.1728 1C25.6424 1 25.1338 1.21063 24.7588 1.58557L19.8081 6.53357L11.3228 15.0202L9.90942 20.6776L15.5654 19.2629L24.0508 10.7776M24.0508 10.7776L19.8081 6.53357M24.0508 10.7776L29.0014 5.82824M29.0014 5.82824L30.4148 7.24157C30.6006 7.42731 30.748 7.64784 30.8486 7.89058C30.9492 8.13331 31.001 8.39349 31.001 8.65624C31.001 8.91899 30.9492 9.17917 30.8486 9.4219C30.748 9.66464 30.6006 9.88517 30.4148 10.0709L26.0001 14.4842" stroke="#0C4D83" stroke-width="2" stroke-linecap="round" stroke-linejoin="round"/>
<path d="M25 19.0002V29.0002C25 29.5307 24.7893 30.0394 24.4142 30.4145C24.0391 30.7895 23.5304 31.0002 23 31.0002H3C2.46957 31.0002 1.96086 30.7895 1.58579 30.4145C1.21071 30.0394 1 29.5307 1 29.0002V9.00024C1 8.46981 1.21071 7.9611 1.58579 7.58603C1.96086 7.21096 2.46957 7.00024 3 7.00024H13" stroke="#0C4D83" stroke-width="2" stroke-linecap="round" stroke-linejoin="round"/>
</svg>
