<svg width="35" height="30" viewBox="0 0 35 30" fill="none" xmlns="http://www.w3.org/2000/svg">
<path d="M5.83333 14.1663L0 11.25L17.5 2.5L35 11.25V21.875H32.0833V12.7087L29.1667 14.1663V22.5138L28.8415 22.8575C27.4759 24.3085 25.7482 25.4788 23.7855 26.2822C21.8228 27.0856 19.675 27.5017 17.5 27.5C15.325 27.5017 13.1772 27.0856 11.2145 26.2822C9.25179 25.4788 7.52414 24.3085 6.15854 22.8575L5.83333 22.5138V14.1663ZM8.75 15.625V21.615C9.84368 22.6802 11.1899 23.5332 12.6988 24.1169C14.2077 24.7006 15.8445 25.0017 17.5 25C19.1555 25.0017 20.7923 24.7006 22.3012 24.1169C23.8101 23.5332 25.1563 22.6802 26.25 21.615V15.625L17.5 20L8.75 15.625ZM5.78958 11.25L17.5 17.1063L29.2104 11.25L17.5 5.39375L5.78958 11.25Z" fill="#0C4D83"/>
</svg>
