<svg width="31" height="31" viewBox="0 0 31 31" fill="none" xmlns="http://www.w3.org/2000/svg">
<path fill-rule="evenodd" clip-rule="evenodd" d="M3.875 4.84375C3.875 4.58682 3.97706 4.34042 4.15874 4.15874C4.34042 3.97706 4.58682 3.875 4.84375 3.875H13.5625C13.8194 3.875 14.0658 3.97706 14.2475 4.15874C14.4292 4.34042 14.5312 4.58682 14.5312 4.84375V13.5625C14.5312 13.8194 14.4292 14.0658 14.2475 14.2475C14.0658 14.4292 13.8194 14.5312 13.5625 14.5312H4.84375C4.58682 14.5312 4.34042 14.4292 4.15874 14.2475C3.97706 14.0658 3.875 13.8194 3.875 13.5625V4.84375ZM16.4688 4.84375C16.4688 4.58682 16.5708 4.34042 16.7525 4.15874C16.9342 3.97706 17.1806 3.875 17.4375 3.875H26.1562C26.4132 3.875 26.6596 3.97706 26.8413 4.15874C27.0229 4.34042 27.125 4.58682 27.125 4.84375V13.5625C27.125 13.8194 27.0229 14.0658 26.8413 14.2475C26.6596 14.4292 26.4132 14.5312 26.1562 14.5312H17.4375C17.1806 14.5312 16.9342 14.4292 16.7525 14.2475C16.5708 14.0658 16.4688 13.8194 16.4688 13.5625V4.84375ZM3.875 17.4375C3.875 17.1806 3.97706 16.9342 4.15874 16.7525C4.34042 16.5708 4.58682 16.4688 4.84375 16.4688H13.5625C13.8194 16.4688 14.0658 16.5708 14.2475 16.7525C14.4292 16.9342 14.5312 17.1806 14.5312 17.4375V26.1562C14.5312 26.4132 14.4292 26.6596 14.2475 26.8413C14.0658 27.0229 13.8194 27.125 13.5625 27.125H4.84375C4.58682 27.125 4.34042 27.0229 4.15874 26.8413C3.97706 26.6596 3.875 26.4132 3.875 26.1562V17.4375ZM16.4688 17.4375C16.4688 17.1806 16.5708 16.9342 16.7525 16.7525C16.9342 16.5708 17.1806 16.4688 17.4375 16.4688H26.1562C26.4132 16.4688 26.6596 16.5708 26.8413 16.7525C27.0229 16.9342 27.125 17.1806 27.125 17.4375V26.1562C27.125 26.4132 27.0229 26.6596 26.8413 26.8413C26.6596 27.0229 26.4132 27.125 26.1562 27.125H17.4375C17.1806 27.125 16.9342 27.0229 16.7525 26.8413C16.5708 26.6596 16.4688 26.4132 16.4688 26.1562V17.4375Z" fill="black"/>
</svg>
